<?xml version="1.0" encoding="UTF-8"?>
<svg xmlns="http://www.w3.org/2000/svg" xmlns:xlink="http://www.w3.org/1999/xlink" width="190px" height="190px" viewBox="0 0 190 190" version="1.1">
<g id="surface1">
<path style=" stroke:none;fill-rule:nonzero;fill:rgb(91.372549%,79.215686%,19.607843%);fill-opacity:1;" d="M 15.914062 170.09375 L 0 0.320312 L 190 0.660156 L 173.175781 170.09375 L 95.714844 189.679688 Z M 15.914062 170.09375 "/>
<path style=" stroke:none;fill-rule:nonzero;fill:rgb(100%,87.058824%,14.509804%);fill-opacity:1;" d="M 95.714844 173.285156 L 95.714844 16.484375 L 173.960938 16.714844 L 160.007812 157 Z M 95.714844 173.285156 "/>
<path style=" stroke:none;fill-rule:nonzero;fill:rgb(100%,100%,100%);fill-opacity:1;" d="M 87.339844 35.105469 L 66.65625 35.105469 L 66.65625 139.464844 L 50.566406 136.789062 L 50.566406 122.738281 L 31.410156 120.0625 L 31.410156 151.507812 L 87.339844 164.21875 Z M 102.851562 35.105469 L 160.121094 35.105469 L 156.285156 55.109375 L 124.71875 55.109375 L 124.71875 87.929688 L 156.285156 87.929688 L 152.464844 154.183594 L 102.851562 164.21875 L 102.851562 143.480469 L 136.371094 133.445312 L 138.304688 106.019531 L 102.851562 110.503906 Z M 102.851562 35.105469 "/>
</g>
</svg>
