<?xml version="1.0" encoding="UTF-8"?>
<svg xmlns="http://www.w3.org/2000/svg" xmlns:xlink="http://www.w3.org/1999/xlink" width="220px" height="220px" viewBox="0 0 220 220" version="1.1">
<g id="surface1">
<path style=" stroke:none;fill-rule:nonzero;fill:rgb(0%,0%,0%);fill-opacity:1;" d="M 176.457031 77.652344 C 174.257812 76.902344 172.046875 76.203125 169.816406 75.558594 C 170.1875 74.050781 170.527344 72.539062 170.839844 71.019531 C 175.867188 46.570312 172.582031 26.871094 161.359375 20.390625 C 150.617188 14.167969 133 20.652344 115.230469 36.152344 C 113.484375 37.6875 111.769531 39.261719 110.09375 40.878906 C 108.976562 39.800781 107.832031 38.75 106.65625 37.71875 C 88.03125 21.140625 69.359375 14.15625 58.152344 20.664062 C 47.410156 26.898438 44.21875 45.414062 48.746094 68.585938 C 49.195312 70.878906 49.703125 73.160156 50.269531 75.429688 C 47.628906 76.1875 45.078125 76.988281 42.632812 77.835938 C 20.824219 85.46875 6.875 97.421875 6.875 109.824219 C 6.875 122.636719 21.847656 135.484375 44.589844 143.277344 C 46.433594 143.898438 48.296875 144.484375 50.175781 145.023438 C 49.5625 147.457031 49.023438 149.914062 48.554688 152.402344 C 44.257812 175.175781 47.609375 193.25 58.328125 199.449219 C 69.402344 205.847656 87.976562 199.269531 106.085938 183.417969 C 107.515625 182.160156 108.949219 180.835938 110.382812 179.441406 C 112.195312 181.191406 114.050781 182.886719 115.96875 184.539062 C 133.5 199.65625 150.8125 205.761719 161.515625 199.546875 C 172.582031 193.128906 176.175781 173.707031 171.503906 150.078125 C 171.148438 148.273438 170.734375 146.429688 170.269531 144.550781 C 171.578125 144.164062 172.851562 143.765625 174.105469 143.351562 C 197.738281 135.5 213.132812 122.808594 213.132812 109.835938 C 213.125 97.375 198.734375 85.339844 176.457031 77.652344 Z M 121.027344 42.816406 C 136.25 29.53125 150.480469 24.289062 156.96875 28.039062 C 163.875 32.027344 166.558594 48.125 162.21875 69.234375 C 161.933594 70.609375 161.625 71.980469 161.292969 73.34375 C 152.203125 71.28125 142.996094 69.820312 133.714844 68.980469 C 128.398438 61.328125 122.578125 54.042969 116.28125 47.175781 C 117.824219 45.679688 119.402344 44.226562 121.019531 42.816406 Z M 67.773438 120.421875 C 69.640625 124.03125 71.589844 127.59375 73.621094 131.113281 C 75.691406 134.703125 77.851562 138.246094 80.097656 141.734375 C 73.710938 141.035156 67.371094 140.015625 61.089844 138.667969 C 62.910156 132.773438 65.152344 126.648438 67.773438 120.421875 Z M 67.773438 99.652344 C 65.195312 93.554688 63.015625 87.558594 61.222656 81.765625 C 67.109375 80.445312 73.382812 79.367188 79.921875 78.550781 C 77.734375 81.972656 75.621094 85.441406 73.597656 88.964844 C 71.574219 92.480469 69.628906 96.046875 67.757812 99.652344 Z M 72.457031 110.039062 C 75.171875 104.375 78.097656 98.820312 81.234375 93.375 C 84.363281 87.933594 87.695312 82.613281 91.230469 77.421875 C 97.367188 76.960938 103.660156 76.710938 110.011719 76.710938 C 116.367188 76.710938 122.695312 76.960938 128.828125 77.425781 C 132.324219 82.609375 135.640625 87.90625 138.765625 93.324219 C 141.894531 98.742188 144.859375 104.269531 147.660156 109.910156 C 144.894531 115.59375 141.941406 121.171875 138.789062 126.640625 C 135.664062 132.085938 132.371094 137.417969 128.90625 142.644531 C 122.78125 143.074219 116.445312 143.308594 110 143.308594 C 103.554688 143.308594 97.335938 143.109375 91.324219 142.714844 C 87.765625 137.503906 84.402344 132.164062 81.246094 126.695312 C 78.085938 121.222656 75.148438 115.671875 72.445312 110.039062 Z M 146.414062 131.054688 C 148.492188 127.449219 150.484375 123.800781 152.398438 120.101562 C 155.019531 126.039062 157.328125 132.109375 159.324219 138.285156 C 152.96875 139.714844 146.546875 140.816406 140.078125 141.574219 C 142.261719 138.109375 144.375 134.605469 146.414062 131.054688 Z M 152.3125 99.65625 C 150.410156 96.03125 148.433594 92.457031 146.378906 88.914062 C 144.371094 85.425781 142.28125 81.980469 140.109375 78.578125 C 146.6875 79.410156 153 80.519531 158.917969 81.871094 C 157.011719 87.910156 154.808594 93.84375 152.3125 99.65625 Z M 110.097656 53.488281 C 114.386719 58.175781 118.441406 63.078125 122.238281 68.175781 C 114.117188 67.785156 105.988281 67.785156 97.855469 68.175781 C 101.867188 62.871094 105.96875 57.953125 110.097656 53.488281 Z M 62.589844 28.300781 C 69.488281 24.292969 84.746094 30.019531 100.832031 44.3125 C 101.859375 45.230469 102.894531 46.1875 103.925781 47.179688 C 97.597656 54.046875 91.730469 61.328125 86.367188 68.96875 C 77.109375 69.804688 67.914062 71.238281 58.839844 73.265625 C 58.316406 71.15625 57.84375 69.035156 57.425781 66.898438 C 53.535156 47.035156 56.109375 32.058594 62.589844 28.300781 Z M 52.53125 136.515625 C 50.8125 136.027344 49.109375 135.496094 47.4375 134.921875 C 37.382812 131.484375 29.078125 126.996094 23.375 122.113281 C 18.269531 117.734375 15.6875 113.363281 15.6875 109.824219 C 15.6875 102.300781 26.878906 92.699219 45.554688 86.191406 C 47.902344 85.375 50.269531 84.628906 52.652344 83.953125 C 55.425781 92.867188 58.785156 101.585938 62.707031 110.054688 C 58.742188 118.644531 55.339844 127.480469 52.53125 136.515625 Z M 100.28125 176.765625 C 92.273438 183.78125 84.257812 188.75 77.191406 191.25 C 70.839844 193.5 65.78125 193.566406 62.726562 191.800781 C 56.222656 188.039062 53.511719 173.519531 57.203125 154.046875 C 57.640625 151.757812 58.144531 149.464844 58.707031 147.171875 C 67.871094 149.148438 77.160156 150.496094 86.503906 151.203125 C 91.921875 158.890625 97.832031 166.210938 104.207031 173.117188 C 102.925781 174.378906 101.617188 175.59375 100.28125 176.765625 Z M 110.34375 166.785156 C 106.167969 162.273438 102 157.273438 97.933594 151.902344 C 101.886719 152.058594 105.90625 152.136719 110 152.136719 C 114.203125 152.136719 118.363281 152.046875 122.460938 151.859375 C 118.679688 157.039062 114.632812 162.019531 110.34375 166.785156 Z M 163.847656 179.070312 C 162.621094 185.707031 160.148438 190.132812 157.09375 191.902344 C 150.59375 195.675781 136.691406 190.773438 121.707031 177.84375 C 119.988281 176.367188 118.269531 174.777344 116.519531 173.117188 C 122.769531 166.179688 128.542969 158.832031 133.804688 151.117188 C 143.203125 150.324219 152.535156 148.878906 161.734375 146.800781 C 162.15625 148.5 162.527344 150.167969 162.851562 151.800781 C 164.917969 162.242188 165.21875 171.683594 163.847656 179.070312 Z M 171.324219 134.96875 C 170.203125 135.34375 169.039062 135.703125 167.863281 136.058594 C 164.976562 127.101562 161.484375 118.355469 157.414062 109.867188 C 161.335938 101.5 164.6875 92.878906 167.453125 84.066406 C 169.5625 84.679688 171.613281 85.324219 173.585938 86.003906 C 192.671875 92.589844 204.3125 102.332031 204.3125 109.824219 C 204.3125 117.816406 191.738281 128.1875 171.324219 134.96875 Z M 171.324219 134.96875 "/>
<path style=" stroke:none;fill-rule:nonzero;fill:rgb(0%,0%,0%);fill-opacity:1;" d="M 110 128.28125 C 117.476562 128.308594 124.234375 123.824219 127.113281 116.921875 C 129.992188 110.019531 128.425781 102.0625 123.148438 96.761719 C 117.867188 91.464844 109.914062 89.871094 103.003906 92.730469 C 96.089844 95.585938 91.582031 102.328125 91.582031 109.804688 C 91.5625 119.996094 99.808594 128.273438 110 128.28125 Z M 110 128.28125 "/>
</g>
</svg>
