<svg xmlns="http://www.w3.org/2000/svg" xmlns:xlink="http://www.w3.org/1999/xlink" width="150px" height="76px" viewBox="-3 -3 155 82" version="1.1" transform="matrix(1, 0, 0, 1, 0, 0)"><g id="deeditor_bgCarrier" stroke-width="0">
    <rect id="dee_c_e" x="-3" y="-3" width="155" height="82" rx="0" fill="#0a0b04" strokewidth="0"/>
  </g>
<g id="surface1">
<path style=" stroke:none;fill-rule:nonzero;fill:#f6f6f6;fill-opacity:1;" d="M 38.230469 10.5 C 38.089844 10.785156 39.65625 16.355469 41.792969 22.785156 L 45.714844 34.574219 L 44.144531 39.570312 C 43.363281 42.359375 41.933594 47 41.152344 49.785156 C 39.726562 54.714844 38.730469 56.070312 38.089844 54.070312 C 37.945312 53.640625 35.878906 47.070312 33.457031 39.5 C 30.746094 30.855469 28.753906 25.714844 28.039062 25.429688 C 26.402344 24.785156 23.265625 24.929688 22.125 25.640625 C 21.199219 26.214844 21.199219 26.855469 22.195312 30.144531 C 24.90625 39.429688 33.457031 63.140625 34.3125 63.714844 C 35.738281 64.570312 42.574219 64.429688 43.21875 63.429688 C 43.503906 62.929688 45.070312 58.859375 46.640625 54.285156 L 49.488281 46.070312 L 53.550781 45.855469 C 55.757812 45.714844 57.894531 45.285156 58.253906 44.785156 C 58.894531 43.929688 69.796875 11.640625 69.796875 10.5 C 69.796875 10.214844 68.300781 10 66.445312 10.144531 L 63.101562 10.355469 L 60.460938 18.570312 C 58.964844 23.070312 57.113281 29.144531 56.257812 31.925781 C 55.476562 34.785156 54.476562 37.144531 54.121094 37.144531 C 53.050781 37.144531 53.265625 34.929688 54.761719 30.570312 C 56.328125 26 55.902344 25 52.265625 25 C 49.917969 25 49.917969 25 47.566406 17.644531 L 45.214844 10.355469 L 41.863281 10.144531 C 40.082031 10 38.441406 10.214844 38.230469 10.5 Z M 38.230469 10.5 "/>
<path style=" stroke:none;fill-rule:nonzero;fill:#f6f6f6;fill-opacity:1;" d="M 70.652344 35.355469 C 65.519531 37.570312 67.234375 45.714844 72.863281 45.714844 C 75.355469 45.714844 77.636719 44.570312 77.636719 43.285156 C 77.636719 42.574219 76.851562 42.429688 74.5 42.644531 C 72.648438 42.855469 71.222656 42.714844 70.9375 42.214844 C 70.582031 41.714844 71.292969 41.425781 72.929688 41.359375 C 74.355469 41.285156 75.925781 41.214844 76.421875 41.144531 C 77.5625 41.070312 77.992188 37.355469 76.921875 36.140625 C 75.78125 34.714844 73.074219 34.359375 70.652344 35.355469 Z M 74.644531 38.359375 C 74.785156 38.929688 74.214844 39.285156 73.074219 39.285156 C 71.292969 39.285156 70.722656 38.574219 71.722656 37.570312 C 72.433594 36.859375 74.285156 37.355469 74.644531 38.359375 Z M 74.644531 38.359375 "/>
<path style=" stroke:none;fill-rule:nonzero;fill:#f6f6f6;fill-opacity:1;" d="M 81.910156 35.214844 C 79.0625 36.644531 79.203125 39 82.195312 40.785156 C 85.402344 42.644531 85.402344 43.140625 82.265625 42.644531 C 80.128906 42.285156 79.773438 42.429688 79.773438 43.570312 C 79.773438 46.214844 85.472656 46.285156 86.898438 43.644531 C 87.898438 41.714844 87.183594 40.285156 84.691406 39.285156 C 81.980469 38.144531 81.980469 36.859375 84.761719 37.355469 C 87.253906 37.929688 87.824219 36.214844 85.546875 35 C 83.832031 34.144531 84.046875 34.144531 81.910156 35.214844 Z M 81.910156 35.214844 "/>
<path style=" stroke:none;fill-rule:nonzero;fill:#f6f6f6;fill-opacity:1;" d="M 90.246094 34.785156 C 89.964844 35 89.75 37.570312 89.75 40.5 C 89.75 45.214844 89.890625 45.714844 91.175781 45.714844 C 92.386719 45.714844 92.597656 45.214844 92.597656 42.214844 C 92.597656 40 92.957031 38.429688 93.667969 37.855469 C 95.523438 36.355469 96.875 38.214844 96.875 42.214844 C 96.875 45.214844 97.089844 45.714844 98.300781 45.714844 C 99.582031 45.714844 99.726562 45.214844 99.726562 41.570312 C 99.726562 36.070312 98.65625 34.640625 95.09375 35.214844 C 93.597656 35.5 91.957031 35.355469 91.53125 35 C 91.03125 34.574219 90.460938 34.5 90.246094 34.785156 Z M 90.246094 34.785156 "/>
<path style=" stroke:none;fill-rule:nonzero;fill:#f6f6f6;fill-opacity:1;" d="M 104.710938 34.929688 C 103.714844 35.214844 102.859375 36 102.71875 36.644531 C 102.503906 37.714844 102.859375 37.855469 105.355469 37.425781 C 107.777344 37.070312 108.277344 37.144531 108.277344 38.144531 C 108.277344 38.929688 107.632812 39.285156 106.425781 39.285156 C 103.644531 39.285156 101.863281 40.570312 101.863281 42.5 C 101.863281 44.714844 103.574219 45.570312 107.777344 45.570312 L 111.125 45.5 L 111.125 40.644531 C 111.125 35.929688 111.125 35.859375 108.917969 35.070312 C 107.632812 34.640625 106.636719 34.285156 106.566406 34.359375 C 106.496094 34.429688 105.710938 34.640625 104.710938 34.929688 Z M 108.277344 42.144531 C 108.277344 42.5 107.492188 42.855469 106.496094 42.855469 C 105.496094 42.855469 104.710938 42.5 104.710938 42.144531 C 104.710938 41.714844 105.496094 41.425781 106.496094 41.425781 C 107.492188 41.425781 108.277344 41.714844 108.277344 42.144531 Z M 108.277344 42.144531 "/>
<path style=" stroke:none;fill-rule:nonzero;fill:#f6f6f6;fill-opacity:1;" d="M 74.785156 55.714844 C 74.785156 63.074219 74.855469 63.570312 76.210938 63.570312 C 77.347656 63.570312 77.636719 63.074219 77.636719 61.429688 C 77.636719 58.714844 78.347656 58.714844 79.914062 61.429688 C 80.769531 62.929688 81.695312 63.570312 82.980469 63.570312 L 84.832031 63.570312 L 82.980469 60.929688 C 80.839844 57.714844 80.769531 57 82.625 55.355469 C 84.40625 53.714844 84.40625 52.855469 82.625 52.855469 C 81.839844 52.855469 80.699219 53.640625 80.058594 54.644531 C 78.277344 57.429688 77.636719 56.785156 77.636719 52.144531 C 77.636719 48.355469 77.492188 47.859375 76.210938 47.859375 C 74.855469 47.859375 74.785156 48.355469 74.785156 55.714844 Z M 74.785156 55.714844 "/>
<path style=" stroke:none;fill-rule:nonzero;fill:#f6f6f6;fill-opacity:1;" d="M 109.34375 49.285156 C 108.773438 50.214844 109.558594 51.429688 110.769531 51.429688 C 111.769531 51.429688 112.695312 49.714844 112.050781 49 C 111.339844 48.355469 109.84375 48.5 109.34375 49.285156 Z M 109.34375 49.285156 "/>
<path style=" stroke:none;fill-rule:nonzero;fill:#f6f6f6;fill-opacity:1;" d="M 52.480469 53.285156 C 51.554688 54.214844 51.984375 60.359375 53.125 62 C 54.050781 63.355469 54.761719 63.570312 58.253906 63.355469 L 62.3125 63.214844 L 62.3125 58.214844 C 62.3125 53.714844 62.171875 53.214844 60.890625 53.214844 C 59.679688 53.214844 59.464844 53.785156 59.25 56.929688 C 59.109375 59 58.753906 60.785156 58.324219 60.785156 C 56.117188 61.214844 55.902344 60.855469 55.542969 57.144531 C 55.261719 54.355469 54.832031 53.144531 54.121094 53 C 53.476562 52.929688 52.765625 53 52.480469 53.285156 Z M 52.480469 53.285156 "/>
<path style=" stroke:none;fill-rule:nonzero;fill:#f6f6f6;fill-opacity:1;" d="M 65.878906 54.644531 C 62.171875 58.285156 64.523438 63.855469 69.652344 63.429688 C 71.507812 63.285156 72.363281 62.859375 72.503906 61.925781 C 72.71875 60.785156 72.433594 60.640625 70.652344 61.070312 C 68.015625 61.644531 66.734375 59.929688 67.730469 57.214844 C 68.300781 55.785156 68.726562 55.644531 70.511719 56 C 72.289062 56.285156 72.648438 56.144531 72.648438 55.070312 C 72.648438 52.355469 68.371094 52.074219 65.878906 54.644531 Z M 65.878906 54.644531 "/>
<path style=" stroke:none;fill-rule:nonzero;fill:#f6f6f6;fill-opacity:1;" d="M 87.539062 53.929688 C 85.402344 55.070312 84.476562 58.355469 85.402344 61 C 86.1875 62.929688 87.46875 63.570312 90.890625 63.570312 C 95.804688 63.570312 97.941406 58.140625 94.382812 54.644531 C 92.457031 52.640625 90.316406 52.425781 87.539062 53.929688 Z M 92.597656 57.144531 C 93.171875 58.140625 93.171875 59 92.597656 60 C 91.816406 61.5 91.246094 61.714844 89.464844 61 C 88.324219 60.570312 87.898438 57.144531 88.824219 56.214844 C 89.75 55.214844 91.886719 55.785156 92.597656 57.144531 Z M 92.597656 57.144531 "/>
<path style=" stroke:none;fill-rule:nonzero;fill:#f6f6f6;fill-opacity:1;" d="M 97.445312 53.214844 C 97.230469 53.5 97.730469 55.859375 98.585938 58.429688 C 100.082031 62.785156 100.4375 63.214844 102.289062 63.429688 C 104.285156 63.640625 104.425781 63.429688 106.066406 58.570312 C 106.992188 55.859375 107.566406 53.359375 107.351562 53.144531 C 106.351562 52.074219 104.855469 53.640625 104 56.714844 C 103.5 58.5 102.859375 60 102.574219 60 C 102.359375 60 101.648438 58.5 101.082031 56.640625 C 100.082031 53.5 98.585938 52.074219 97.445312 53.214844 Z M 97.445312 53.214844 "/>
<path style=" stroke:none;fill-rule:nonzero;fill:#f6f6f6;fill-opacity:1;" d="M 109.488281 53.359375 C 109.203125 53.574219 108.988281 56 108.988281 58.714844 C 108.988281 63.074219 109.128906 63.570312 110.414062 63.570312 C 111.695312 63.570312 111.839844 63.074219 111.839844 58.214844 C 111.839844 54.214844 111.625 52.855469 110.910156 52.855469 C 110.34375 52.855469 109.703125 53.070312 109.488281 53.359375 Z M 109.488281 53.359375 "/>
<path style=" stroke:none;fill-rule:nonzero;fill:#f6f6f6;fill-opacity:1;" d="M 116.113281 54.285156 C 114.121094 56.285156 114.121094 61.785156 116.042969 62.859375 C 118.039062 63.855469 121.53125 63.714844 122.457031 62.570312 C 123.382812 61.429688 122.3125 60.285156 121.101562 61.070312 C 120.671875 61.285156 119.746094 61.285156 118.894531 61.070312 C 117.753906 60.714844 117.539062 60.070312 117.679688 58.355469 C 117.894531 56.285156 118.109375 56.070312 120.246094 56.144531 C 122.027344 56.285156 122.527344 56 122.527344 55 C 122.527344 52.570312 118.324219 52.074219 116.113281 54.285156 Z M 116.113281 54.285156 "/>
</g>
</svg>