<?xml version="1.0" standalone="no"?>
<!DOCTYPE svg PUBLIC "-//W3C//DTD SVG 20010904//EN"
 "http://www.w3.org/TR/2001/REC-SVG-20010904/DTD/svg10.dtd">
<svg version="1.0" xmlns="http://www.w3.org/2000/svg"
 width="207.000000pt" height="106.000000pt" viewBox="0 0 207.000000 106.000000"
 preserveAspectRatio="xMidYMid meet">

<g transform="translate(0.000000,106.000000) scale(0.100000,-0.100000)"
fill="#000000" stroke="none">
<path d="M527 913 c-2 -4 20 -82 50 -172 l55 -165 -22 -70 c-11 -39 -31 -104
-42 -143 -20 -69 -34 -88 -43 -60 -2 6 -31 98 -65 204 -38 121 -66 193 -76
197 -23 9 -67 7 -83 -3 -13 -8 -13 -17 1 -63 38 -130 158 -462 170 -470 20
-12 116 -10 125 4 4 7 26 64 48 128 l40 115 57 3 c31 2 61 8 66 15 9 12 162
464 162 480 0 4 -21 7 -47 5 l-47 -3 -37 -115 c-21 -63 -47 -148 -59 -187 -11
-40 -25 -73 -30 -73 -15 0 -12 31 9 92 22 64 16 78 -35 78 -33 0 -33 0 -66
103 l-33 102 -47 3 c-25 2 -48 -1 -51 -5z"/>
<path d="M982 565 c-72 -31 -48 -145 31 -145 35 0 67 16 67 34 0 10 -11 12
-44 9 -26 -3 -46 -1 -50 6 -5 7 5 11 28 12 20 1 42 2 49 3 16 1 22 53 7 70
-16 20 -54 25 -88 11z m56 -42 c2 -8 -6 -13 -22 -13 -25 0 -33 10 -19 24 10
10 36 3 41 -11z"/>
<path d="M1140 567 c-40 -20 -38 -53 4 -78 45 -26 45 -33 1 -26 -30 5 -35 3
-35 -13 0 -37 80 -38 100 -1 14 27 4 47 -31 61 -38 16 -38 34 1 27 35 -8 43
16 11 33 -24 12 -21 12 -51 -3z"/>
<path d="M1257 573 c-4 -3 -7 -39 -7 -80 0 -66 2 -73 20 -73 17 0 20 7 20 49
0 31 5 53 15 61 26 21 45 -5 45 -61 0 -42 3 -49 20 -49 18 0 20 7 20 58 0 77
-15 97 -65 89 -21 -4 -44 -2 -50 3 -7 6 -15 7 -18 3z"/>
<path d="M1460 571 c-14 -4 -26 -15 -28 -24 -3 -15 2 -17 37 -11 34 5 41 4 41
-10 0 -11 -9 -16 -26 -16 -39 0 -64 -18 -64 -45 0 -31 24 -43 83 -43 l47 1 0
68 c0 66 0 67 -31 78 -18 6 -32 11 -33 10 -1 -1 -12 -4 -26 -8z m50 -101 c0
-5 -11 -10 -25 -10 -14 0 -25 5 -25 10 0 6 11 10 25 10 14 0 25 -4 25 -10z"/>
<path d="M1040 280 c0 -103 1 -110 20 -110 16 0 20 7 20 30 0 38 10 38 32 0
12 -21 25 -30 43 -30 l26 0 -26 37 c-30 45 -31 55 -5 78 25 23 25 35 0 35 -11
0 -27 -11 -36 -25 -25 -39 -34 -30 -34 35 0 53 -2 60 -20 60 -19 0 -20 -7 -20
-110z"/>
<path d="M1525 370 c-8 -13 3 -30 20 -30 14 0 27 24 18 34 -10 9 -31 7 -38 -4z"/>
<path d="M727 314 c-13 -13 -7 -99 9 -122 13 -19 23 -22 72 -19 l57 2 0 70 c0
63 -2 70 -20 70 -17 0 -20 -8 -23 -52 -2 -29 -7 -54 -13 -54 -31 -6 -34 -1
-39 51 -4 39 -10 56 -20 58 -9 1 -19 0 -23 -4z"/>
<path d="M915 295 c-52 -51 -19 -129 53 -123 26 2 38 8 40 21 3 16 -1 18 -26
12 -37 -8 -55 16 -41 54 8 20 14 22 39 17 25 -4 30 -2 30 13 0 38 -60 42 -95
6z"/>
<path d="M1219 305 c-30 -16 -43 -62 -30 -99 11 -27 29 -36 77 -36 69 0 99 76
49 125 -27 28 -57 31 -96 10z m71 -45 c8 -14 8 -26 0 -40 -11 -21 -19 -24 -44
-14 -16 6 -22 54 -9 67 13 14 43 6 53 -13z"/>
<path d="M1358 315 c-3 -4 4 -37 16 -73 21 -61 26 -67 52 -70 28 -3 30 0 53
68 13 38 21 73 18 76 -14 15 -35 -7 -47 -50 -7 -25 -16 -46 -20 -46 -3 0 -13
21 -21 47 -14 44 -35 64 -51 48z"/>
<path d="M1527 313 c-4 -3 -7 -37 -7 -75 0 -61 2 -68 20 -68 18 0 20 7 20 75
0 56 -3 75 -13 75 -8 0 -17 -3 -20 -7z"/>
<path d="M1620 300 c-28 -28 -28 -105 -1 -120 28 -14 77 -12 90 4 13 16 -2 32
-19 21 -6 -3 -19 -3 -31 0 -16 5 -19 14 -17 38 3 29 6 32 36 31 25 -2 32 2 32
16 0 34 -59 41 -90 10z"/>
</g>
</svg>
