<?xml version="1.0" encoding="UTF-8" standalone="no" ?>
<!DOCTYPE svg PUBLIC "-//W3C//DTD SVG 1.1//EN" "http://www.w3.org/Graphics/SVG/1.1/DTD/svg11.dtd">
<svg xmlns="http://www.w3.org/2000/svg" xmlns:xlink="http://www.w3.org/1999/xlink" version="1.1" width="1280" height="1024" viewBox="0 0 1280 1024" xml:space="preserve">
<desc>Created with Fabric.js 5.3.0</desc>
<defs>
</defs>
<g transform="matrix(1 0 0 1 640 512)" id="background-logo"  >
<rect style="stroke: none; stroke-width: 0; stroke-dasharray: none; stroke-linecap: butt; stroke-dashoffset: 0; stroke-linejoin: miter; stroke-miterlimit: 4; fill: rgb(255,255,255); fill-opacity: 0; fill-rule: nonzero; opacity: 1;"  paint-order="stroke"  x="-640" y="-512" rx="0" ry="0" width="1280" height="1024" />
</g>
<g transform="matrix(1.9211538461538462 0 0 1.9211538461538462 623.0601168617225 438.3294671989156)" id="text-logo"  >
<g style=""  paint-order="stroke"   >
		<g transform="matrix(1 0 0 1 0 0)" id="text-logo-path-0"  >
<path style="stroke: none; stroke-width: 0.4680851063829785; stroke-dasharray: none; stroke-linecap: butt; stroke-dashoffset: 0; stroke-linejoin: miter; stroke-miterlimit: 4; fill: rgb(255,255,255); fill-rule: nonzero; opacity: 1;"  paint-order="stroke"  transform=" translate(-71.17, 13.2)" d="M 2.2 0 L 23.67 0 L 23.67 -5.28 L 8.58 -5.28 L 8.58 -10.56 L 19.93 -10.56 L 19.93 -15.84 L 8.58 -15.84 L 8.58 -21.12 L 23.67 -21.12 L 23.67 -26.4 L 2.2 -26.4 Z M 49.1 0.44 C 55.4 0.44 58.7 -0.92 60.06 -3.39 C 60.72 -4.62 61.07 -6.2 61.07 -8.18 C 61.07 -13.33 58.7 -15.84 52.01 -15.84 L 49.1 -15.84 C 46.46 -15.84 44.92 -15.84 44.18 -16.63 C 43.82 -16.98 43.65 -17.56 43.65 -18.39 C 43.65 -20.11 44.09 -20.86 45.63 -21.25 C 46.38 -21.43 47.56 -21.52 49.15 -21.52 C 51.39 -21.52 52.58 -21.34 53.33 -20.2 C 53.68 -19.62 53.86 -18.7 53.86 -17.51 L 60.32 -17.51 C 60.32 -24.51 56.54 -26.84 49.15 -26.84 C 42.86 -26.84 39.56 -25.48 38.19 -23.01 C 37.53 -21.78 37.18 -20.2 37.18 -18.22 C 37.18 -13.07 39.51 -10.56 46.24 -10.56 L 49.1 -10.56 C 51.61 -10.56 53.28 -10.38 54.08 -9.64 C 54.43 -9.24 54.6 -8.71 54.6 -8.01 C 54.6 -6.29 54.16 -5.54 52.62 -5.19 C 51.88 -4.97 50.69 -4.88 49.1 -4.88 C 46.33 -4.88 45.06 -5.1 44.26 -6.25 C 43.87 -6.82 43.65 -7.7 43.65 -8.89 L 37.18 -8.89 C 37.18 -4.14 39.03 -1.5 42.5 -0.4 C 44.22 0.18 46.42 0.44 49.1 0.44 Z M 91.92 0 L 99.84 0 L 99.84 -26.4 L 93.41 -26.4 L 93.41 -8.23 L 82.5 -26.4 L 74.58 -26.4 L 74.58 0 L 81 0 L 81 -18.17 Z M 133.72 0 L 140.14 0 L 130.11 -26.4 L 123.33 -26.4 L 113.34 0 L 119.77 0 L 121.62 -4.88 L 131.87 -4.88 Z M 129.89 -10.16 L 123.6 -10.16 L 126.76 -18.44 Z" stroke-linecap="round" />
</g>
</g>
</g>
<g transform="matrix(1.9211538461538462 0 0 1.9211538461538462 424.03304865088415 381.0709319861497)" id="tagline-f143b7e7-d49f-495e-9cc5-d17e1b74223b-logo"  >
<g style=""  paint-order="stroke"   >
		<g transform="matrix(1 0 0 1 0 0)" id="tagline-f143b7e7-d49f-495e-9cc5-d17e1b74223b-logo-path-0"  >
<path style="stroke: rgb(255,255,255); stroke-width: 0; stroke-dasharray: none; stroke-linecap: butt; stroke-dashoffset: 0; stroke-linejoin: miter; stroke-miterlimit: 4; fill: rgb(255,255,255); fill-rule: nonzero; opacity: 1;"  paint-order="stroke"  transform=" translate(-46.17, 39.9)" d="M 35.91 0 L 56.43 0 L 86.64 -79.8 L 67.26 -79.8 L 46.17 -24.05 L 25.08 -79.8 L 5.7 -79.8 Z" stroke-linecap="round" />
</g>
</g>
</g>
<g transform="matrix(1.9211538461538462 0 0 1.9211538461538462 346.21627375419484 456.67847727882173)" id="tagline-4db68377-c916-4a1d-ad6a-e4fdfa7a4a7d-logo"  >
<g style=""  paint-order="stroke"   >
		<g transform="matrix(1 0 0 1 0 0)" id="tagline-4db68377-c916-4a1d-ad6a-e4fdfa7a4a7d-logo-path-0"  >
<path style="stroke: rgb(255,255,255); stroke-width: 0; stroke-dasharray: none; stroke-linecap: butt; stroke-dashoffset: 0; stroke-linejoin: miter; stroke-miterlimit: 4; fill: rgb(255,255,255); fill-rule: nonzero; opacity: 1;"  paint-order="stroke"  transform=" translate(-46.17, 39.9)" d="M 35.91 0 L 56.43 0 L 86.64 -79.8 L 67.26 -79.8 L 46.17 -24.05 L 25.08 -79.8 L 5.7 -79.8 Z" stroke-linecap="round" />
</g>
</g>
</g>
<g transform="matrix(1.9211538461538462 0 0 1.9211538461538462 649.8445216618607 513.9370124915878)" id="tagline-6d9422f6-43a1-4018-901e-cdf9e7e8d247-logo"  >
<g style=""  paint-order="stroke"   >
		<g transform="matrix(1 0 0 1 0 0)" id="tagline-6d9422f6-43a1-4018-901e-cdf9e7e8d247-logo-path-0"  >
<path style="stroke: none; stroke-width: 0.4680851063829785; stroke-dasharray: none; stroke-linecap: butt; stroke-dashoffset: 0; stroke-linejoin: miter; stroke-miterlimit: 4; fill: rgb(255,255,255); fill-rule: nonzero; opacity: 1;"  paint-order="stroke"  transform=" translate(-123.62, 13.2)" d="M 14.92 0.44 C 23.36 0.44 27.59 -3.52 27.59 -12.28 L 27.54 -26.4 L 21.12 -26.4 L 21.12 -11.09 C 21.12 -6.91 19.18 -4.84 14.92 -4.84 C 10.74 -4.84 8.67 -6.82 8.67 -11.09 L 8.62 -26.4 L 2.2 -26.4 L 2.2 -12.28 C 2.2 -3.83 6.25 0.44 14.92 0.44 Z M 54.78 0.44 C 63.45 0.44 67.76 -2.68 67.76 -8.98 L 61.34 -8.98 C 61.34 -6.29 58.3 -4.88 54.78 -4.88 C 49.85 -4.88 47.52 -7.44 47.52 -13.24 C 47.52 -18.88 49.68 -21.52 54.78 -21.52 C 58.48 -21.52 61.34 -20.37 61.34 -17.38 L 67.76 -17.38 C 67.36 -23.72 62.39 -26.84 54.78 -26.84 C 45.5 -26.84 41.1 -22.7 41.1 -13.24 C 41.1 -4.05 45.32 0.44 54.78 0.44 Z M 81.27 0 L 87.69 0 L 87.69 -9.46 L 89.1 -10.82 L 98.6 0 L 106.52 0 L 93.37 -15 L 105.03 -26.4 L 97.11 -26.4 L 87.69 -17.2 L 87.69 -26.4 L 81.27 -26.4 Z M 133.72 0.44 C 142.74 0.44 147.31 -3.92 147.31 -13.24 C 147.31 -22.35 143.04 -26.84 133.72 -26.84 C 124.56 -26.84 120.03 -22.57 120.03 -13.24 C 120.03 -4.09 124.34 0.44 133.72 0.44 Z M 126.46 -13.24 C 126.46 -18.74 128.74 -21.52 133.72 -21.52 C 138.51 -21.52 140.89 -18.92 140.89 -13.24 C 140.89 -7.61 138.64 -4.88 133.72 -4.88 C 128.83 -4.88 126.46 -7.48 126.46 -13.24 Z M 168.17 0 L 174.94 0 L 184.93 -26.4 L 178.55 -26.4 L 171.56 -8.01 L 164.56 -26.4 L 158.18 -26.4 Z M 198.44 0 L 204.86 0 L 204.86 -26.4 L 198.44 -26.4 Z M 232.06 0.44 C 240.72 0.44 245.04 -2.68 245.04 -8.98 L 238.61 -8.98 C 238.61 -6.29 235.58 -4.88 232.06 -4.88 C 227.13 -4.88 224.8 -7.44 224.8 -13.24 C 224.8 -18.88 226.95 -21.52 232.06 -21.52 C 235.75 -21.52 238.61 -20.37 238.61 -17.38 L 245.04 -17.38 C 244.64 -23.72 239.67 -26.84 232.06 -26.84 C 222.77 -26.84 218.37 -22.7 218.37 -13.24 C 218.37 -4.05 222.6 0.44 232.06 0.44 Z" stroke-linecap="round" />
</g>
</g>
</g>
</svg>