<?xml version="1.0" standalone="no"?>
<!DOCTYPE svg PUBLIC "-//W3C//DTD SVG 20010904//EN"
 "http://www.w3.org/TR/2001/REC-SVG-20010904/DTD/svg10.dtd">
<svg version="1.0" xmlns="http://www.w3.org/2000/svg"
 width="169.000000pt" height="109.000000pt" viewBox="0 0 169.000000 109.000000"
 preserveAspectRatio="xMidYMid meet">

<g transform="translate(0.000000,109.000000) scale(0.100000,-0.100000)"
fill="#000000" stroke="none">
<path d="M0 545 l0 -545 845 0 845 0 0 545 0 545 -845 0 -845 0 0 -545z m487
303 c34 -100 45 -124 62 -126 18 -3 21 -11 22 -60 1 -56 2 -54 61 126 l60 182
44 0 c37 0 44 -3 44 -19 0 -15 -114 -357 -145 -433 -5 -13 -19 -18 -50 -18
l-43 0 -37 -107 c-58 -171 -46 -154 -117 -151 l-63 3 -72 215 c-40 118 -73
225 -73 238 0 20 5 22 48 22 l47 0 30 -92 c16 -51 42 -131 56 -178 15 -47 30
-84 34 -83 9 2 40 89 61 170 l14 53 -60 172 c-33 95 -60 180 -60 190 0 15 9
18 48 18 l48 0 41 -122z m375 -215 c10 -9 18 -27 18 -40 0 -20 -5 -23 -40 -23
-23 0 -40 -5 -40 -11 0 -8 13 -9 40 -5 31 5 40 3 40 -9 0 -17 -30 -35 -58 -35
-29 0 -72 38 -72 64 0 59 71 97 112 59z m126 -11 c3 -20 0 -22 -25 -16 l-28 6
33 -21 c38 -25 41 -45 7 -67 -32 -21 -75 -12 -75 16 0 17 5 19 33 13 34 -6 32
3 -5 21 -48 24 -24 80 32 74 17 -2 26 -10 28 -26z m147 8 c22 -25 17 -113 -7
-118 -14 -3 -17 6 -20 45 -3 40 -6 48 -23 48 -17 0 -20 -8 -23 -48 -3 -39 -6
-48 -20 -45 -13 2 -18 16 -20 57 -2 29 -1 59 1 65 8 19 93 17 112 -4z m140 4
c11 -12 15 -31 13 -67 l-3 -51 -39 -3 c-46 -3 -76 11 -76 35 0 26 20 42 52 42
15 0 28 5 28 11 0 8 -12 10 -35 6 -40 -7 -52 5 -29 27 20 21 68 20 89 0z
m-377 -242 c2 -28 5 -52 8 -52 3 0 13 10 23 21 9 12 25 20 35 18 17 -4 16 -6
-4 -32 l-22 -27 21 -34 c26 -41 26 -46 1 -46 -12 0 -25 10 -32 25 -6 14 -15
25 -20 25 -4 0 -8 -11 -8 -25 0 -18 -5 -25 -20 -25 -19 0 -20 7 -20 106 0 95
2 105 18 102 13 -2 18 -15 20 -56z m432 23 c0 -8 -9 -15 -20 -15 -11 0 -20 7
-20 15 0 8 9 15 20 15 11 0 20 -7 20 -15z m-710 -84 c0 -28 5 -53 10 -56 21
-13 40 17 40 62 0 37 3 44 18 41 14 -3 18 -16 20 -69 l3 -65 -56 -1 c-65 -2
-75 9 -75 86 0 44 3 51 20 51 17 0 20 -7 20 -49z m210 34 c16 -19 7 -29 -28
-30 -20 0 -28 -6 -30 -21 -4 -29 23 -51 43 -34 12 10 16 9 21 -3 9 -24 -4 -37
-38 -37 -42 0 -68 25 -68 67 0 58 67 97 100 58z m275 1 c27 -20 27 -92 0 -112
-26 -19 -74 -18 -97 3 -24 22 -24 77 2 103 23 23 68 26 95 6z m86 -35 l16 -44
14 44 c9 27 21 45 32 47 23 5 22 -14 -4 -82 -17 -45 -26 -56 -44 -56 -18 0
-27 11 -44 56 -26 68 -27 87 -4 82 10 -2 25 -22 34 -47z m134 -21 c0 -54 -3
-65 -17 -68 -16 -3 -18 5 -18 68 0 63 2 71 18 68 14 -3 17 -14 17 -68z m119
64 c9 -3 16 -15 16 -25 0 -15 -5 -17 -30 -13 -23 5 -31 2 -36 -11 -11 -27 10
-50 41 -47 21 2 26 -1 23 -15 -2 -14 -13 -18 -43 -18 -32 0 -42 5 -54 26 -33
60 21 127 83 103z"/>
<path d="M800 600 c0 -5 9 -10 20 -10 11 0 20 5 20 10 0 6 -9 10 -20 10 -11 0
-20 -4 -20 -10z"/>
<path d="M1215 560 c-3 -5 3 -10 14 -10 12 0 21 5 21 10 0 6 -6 10 -14 10 -8
0 -18 -4 -21 -10z"/>
<path d="M1037 334 c-13 -13 -7 -52 9 -58 22 -9 46 13 42 38 -3 21 -37 34 -51
20z"/>
</g>
</svg>
