<svg xmlns="http://www.w3.org/2000/svg" width="169" height="109" viewBox="0 0 169 109" version="1.1"><path d="M 34.694 12.750 C 34.461 13.162, 35.281 16.425, 36.515 20 C 37.749 23.575, 40.605 31.857, 42.863 38.403 L 46.967 50.307 45.392 55.903 C 42.615 65.771, 39.771 72.977, 38.873 72.422 C 38.393 72.125, 38.008 71.346, 38.017 70.691 C 38.027 70.036, 35.664 62.193, 32.767 53.263 L 27.500 37.027 22.750 37.013 C 18.397 37.001, 18 37.201, 18 39.403 C 18 40.724, 19.446 46.012, 21.214 51.153 C 22.982 56.294, 26.244 65.900, 28.464 72.500 L 32.500 84.500 38.958 84.500 L 45.417 84.500 46.642 81 C 47.316 79.075, 49.300 73.360, 51.052 68.300 L 54.238 59.100 58.730 58.800 L 63.222 58.500 71.023 36.012 C 75.314 23.644, 78.612 13.182, 78.353 12.762 C 77.551 11.464, 68.973 11.890, 68.532 13.250 C 68.309 13.938, 65.736 21.925, 62.813 31 C 57.573 47.273, 57.496 47.429, 57.200 42.313 C 56.953 38.037, 56.552 37.071, 54.916 36.813 C 53.345 36.565, 52.071 33.951, 48.793 24.250 L 44.654 12 39.886 12 C 37.264 12, 34.927 12.338, 34.694 12.750 M 77.073 46.635 C 75.933 48.084, 75 50.301, 75 51.562 C 75 54.169, 79.285 58, 82.201 58 C 84.998 58, 88 56.164, 88 54.453 C 88 53.290, 87.150 53.112, 84 53.616 C 81.320 54.045, 80 53.884, 80 53.128 C 80 52.479, 81.698 52, 84 52 C 87.530 52, 88 51.724, 88 49.655 C 88 44.107, 80.658 42.077, 77.073 46.635 M 91.082 45.401 C 89.344 47.495, 90.098 50.240, 92.777 51.576 C 96.501 53.433, 96.703 54.326, 93.250 53.669 C 90.480 53.141, 90 53.339, 90 55.006 C 90 57.763, 94.323 58.673, 97.507 56.587 C 100.870 54.384, 100.643 52.382, 96.750 49.893 L 93.500 47.815 96.324 48.445 C 98.839 49.006, 99.113 48.825, 98.824 46.788 C 98.578 45.052, 97.756 44.427, 95.415 44.199 C 93.572 44.019, 91.827 44.503, 91.082 45.401 M 102.316 45.619 C 102.080 46.235, 102.024 49.156, 102.193 52.110 C 102.427 56.209, 102.901 57.557, 104.193 57.803 C 105.561 58.063, 105.944 57.203, 106.193 53.312 C 106.451 49.269, 106.820 48.500, 108.500 48.500 C 110.180 48.500, 110.549 49.269, 110.807 53.312 C 111.056 57.203, 111.439 58.063, 112.807 57.803 C 115.244 57.341, 115.745 48.480, 113.476 45.974 C 111.625 43.928, 103.070 43.656, 102.316 45.619 M 118.562 45.581 C 116.293 47.849, 117.495 48.956, 121.518 48.303 C 123.774 47.937, 125 48.136, 125 48.869 C 125 49.491, 123.740 50, 122.200 50 C 118.999 50, 117 51.601, 117 54.165 C 117 56.595, 119.950 57.953, 124.597 57.661 L 128.500 57.415 128.810 51.988 C 129.053 47.730, 128.743 46.285, 127.369 45.280 C 124.962 43.520, 120.469 43.674, 118.562 45.581 M 80 49 C 80 49.550, 80.900 50, 82 50 C 83.100 50, 84 49.550, 84 49 C 84 48.450, 83.100 48, 82 48 C 80.900 48, 80 48.450, 80 49 M 121.500 53 C 121.160 53.550, 121.557 54, 122.382 54 C 123.207 54, 124.160 53.550, 124.500 53 C 124.840 52.450, 124.443 52, 123.618 52 C 122.793 52, 121.840 52.450, 121.500 53 M 86 74.427 C 86 84.333, 86.126 85, 88 85 C 89.506 85, 90.009 84.321, 90.036 82.250 L 90.072 79.500 92.324 82.250 C 93.562 83.763, 95.346 85, 96.288 85 C 98.487 85, 98.444 84.454, 95.922 80.374 L 93.845 77.013 96.018 74.256 C 98.032 71.701, 98.060 71.474, 96.395 71.138 C 95.408 70.939, 93.830 71.727, 92.890 72.888 C 91.949 74.050, 90.938 75, 90.642 75 C 90.346 75, 89.969 72.642, 89.802 69.759 C 89.569 65.709, 89.103 64.443, 87.750 64.186 C 86.173 63.886, 86 64.897, 86 74.427 M 129 67.500 C 129 68.333, 129.889 69, 131 69 C 132.111 69, 133 68.333, 133 67.500 C 133 66.667, 132.111 66, 131 66 C 129.889 66, 129 66.667, 129 67.500 M 58 76.878 C 58 80.457, 58.504 83.174, 59.290 83.826 C 59.999 84.414, 62.943 84.842, 65.832 84.777 L 71.084 84.657 70.792 78.089 C 70.555 72.767, 70.168 71.457, 68.750 71.187 C 67.299 70.910, 67 71.601, 67 75.227 C 67 79.882, 65.633 82.180, 63.378 81.315 C 62.467 80.965, 62 79.128, 62 75.893 C 62 71.667, 61.728 71, 60 71 C 58.227 71, 58 71.667, 58 76.878 M 75 73 C 72.446 75.554, 72.355 81.106, 74.829 83.345 C 76.863 85.186, 82.523 85.581, 83.530 83.952 C 83.886 83.376, 83.919 82.231, 83.603 81.409 C 83.167 80.272, 82.573 80.158, 81.120 80.936 C 79.705 81.693, 78.903 81.587, 78.022 80.527 C 76.057 78.159, 77.213 75.506, 80.231 75.454 C 83.695 75.395, 84.607 74.437, 83.020 72.524 C 81.253 70.395, 77.375 70.625, 75 73 M 101.171 72.750 C 99.352 74.302, 98.552 77.083, 98.889 80.679 C 99.256 84.581, 106.655 86.435, 110.536 83.597 C 113.208 81.643, 113.208 74.357, 110.536 72.403 C 107.911 70.483, 103.642 70.642, 101.171 72.750 M 114 72.793 C 114 73.860, 114.960 77.043, 116.133 79.867 C 117.823 83.933, 118.743 85, 120.561 85 C 122.429 85, 123.242 83.969, 124.928 79.462 C 127.479 72.644, 127.553 70.748, 125.250 71.185 C 124.186 71.387, 122.953 73.245, 122.103 75.925 L 120.706 80.333 119.078 75.925 C 117.368 71.297, 114 69.220, 114 72.793 M 129 78 C 129 84.268, 129.215 85.105, 130.750 84.810 C 132.202 84.530, 132.500 83.369, 132.500 78 C 132.500 72.631, 132.202 71.470, 130.750 71.190 C 129.215 70.895, 129 71.732, 129 78 M 137.790 72.058 C 135.188 73.574, 134.433 79.486, 136.448 82.561 C 137.823 84.659, 138.776 85.059, 141.802 84.807 C 144.405 84.590, 145.583 83.972, 145.825 82.699 C 146.095 81.271, 145.607 80.961, 143.468 81.199 C 140.375 81.544, 138.323 79.206, 139.356 76.514 C 139.872 75.170, 140.734 74.897, 143.015 75.353 C 145.476 75.845, 146 75.622, 146 74.082 C 146 71.172, 141.298 70.013, 137.790 72.058 M 103.709 75.624 C 102.470 76.863, 102.945 80.765, 104.403 81.324 C 106.470 82.118, 109.274 79.664, 108.849 77.434 C 108.479 75.499, 105.044 74.289, 103.709 75.624" stroke="none" fill="#e8e8e8" fill-rule="evenodd"/><path d="M 0 54.506 L 0 109.011 84.750 108.756 L 169.500 108.500 169.759 54.250 L 170.017 0 85.009 0 L 0 0 0 54.506 M 0.466 55 C 0.466 84.975, 0.594 97.237, 0.749 82.250 C 0.905 67.262, 0.905 42.737, 0.749 27.750 C 0.594 12.762, 0.466 25.025, 0.466 55 M 34.694 12.750 C 34.461 13.162, 35.281 16.425, 36.515 20 C 37.749 23.575, 40.605 31.857, 42.863 38.403 L 46.967 50.307 45.392 55.903 C 42.615 65.771, 39.771 72.977, 38.873 72.422 C 38.393 72.125, 38.008 71.346, 38.017 70.691 C 38.027 70.036, 35.664 62.193, 32.767 53.263 L 27.500 37.027 22.750 37.013 C 18.397 37.001, 18 37.201, 18 39.403 C 18 40.724, 19.446 46.012, 21.214 51.153 C 22.982 56.294, 26.244 65.900, 28.464 72.500 L 32.500 84.500 38.958 84.500 L 45.417 84.500 46.642 81 C 47.316 79.075, 49.300 73.360, 51.052 68.300 L 54.238 59.100 58.730 58.800 L 63.222 58.500 71.023 36.012 C 75.314 23.644, 78.612 13.182, 78.353 12.762 C 77.551 11.464, 68.973 11.890, 68.532 13.250 C 68.309 13.938, 65.736 21.925, 62.813 31 C 57.573 47.273, 57.496 47.429, 57.200 42.313 C 56.953 38.037, 56.552 37.071, 54.916 36.813 C 53.345 36.565, 52.071 33.951, 48.793 24.250 L 44.654 12 39.886 12 C 37.264 12, 34.927 12.338, 34.694 12.750 M 77.073 46.635 C 75.933 48.084, 75 50.301, 75 51.562 C 75 54.169, 79.285 58, 82.201 58 C 84.998 58, 88 56.164, 88 54.453 C 88 53.290, 87.150 53.112, 84 53.616 C 81.320 54.045, 80 53.884, 80 53.128 C 80 52.479, 81.698 52, 84 52 C 87.530 52, 88 51.724, 88 49.655 C 88 44.107, 80.658 42.077, 77.073 46.635 M 91.082 45.401 C 89.344 47.495, 90.098 50.240, 92.777 51.576 C 96.501 53.433, 96.703 54.326, 93.250 53.669 C 90.480 53.141, 90 53.339, 90 55.006 C 90 57.763, 94.323 58.673, 97.507 56.587 C 100.870 54.384, 100.643 52.382, 96.750 49.893 L 93.500 47.815 96.324 48.445 C 98.839 49.006, 99.113 48.825, 98.824 46.788 C 98.578 45.052, 97.756 44.427, 95.415 44.199 C 93.572 44.019, 91.827 44.503, 91.082 45.401 M 102.316 45.619 C 102.080 46.235, 102.024 49.156, 102.193 52.110 C 102.427 56.209, 102.901 57.557, 104.193 57.803 C 105.561 58.063, 105.944 57.203, 106.193 53.312 C 106.451 49.269, 106.820 48.500, 108.500 48.500 C 110.180 48.500, 110.549 49.269, 110.807 53.312 C 111.056 57.203, 111.439 58.063, 112.807 57.803 C 115.244 57.341, 115.745 48.480, 113.476 45.974 C 111.625 43.928, 103.070 43.656, 102.316 45.619 M 118.562 45.581 C 116.293 47.849, 117.495 48.956, 121.518 48.303 C 123.774 47.937, 125 48.136, 125 48.869 C 125 49.491, 123.740 50, 122.200 50 C 118.999 50, 117 51.601, 117 54.165 C 117 56.595, 119.950 57.953, 124.597 57.661 L 128.500 57.415 128.810 51.988 C 129.053 47.730, 128.743 46.285, 127.369 45.280 C 124.962 43.520, 120.469 43.674, 118.562 45.581 M 80 49 C 80 49.550, 80.900 50, 82 50 C 83.100 50, 84 49.550, 84 49 C 84 48.450, 83.100 48, 82 48 C 80.900 48, 80 48.450, 80 49 M 121.500 53 C 121.160 53.550, 121.557 54, 122.382 54 C 123.207 54, 124.160 53.550, 124.500 53 C 124.840 52.450, 124.443 52, 123.618 52 C 122.793 52, 121.840 52.450, 121.500 53 M 86 74.427 C 86 84.333, 86.126 85, 88 85 C 89.506 85, 90.009 84.321, 90.036 82.250 L 90.072 79.500 92.324 82.250 C 93.562 83.763, 95.346 85, 96.288 85 C 98.487 85, 98.444 84.454, 95.922 80.374 L 93.845 77.013 96.018 74.256 C 98.032 71.701, 98.060 71.474, 96.395 71.138 C 95.408 70.939, 93.830 71.727, 92.890 72.888 C 91.949 74.050, 90.938 75, 90.642 75 C 90.346 75, 89.969 72.642, 89.802 69.759 C 89.569 65.709, 89.103 64.443, 87.750 64.186 C 86.173 63.886, 86 64.897, 86 74.427 M 129 67.500 C 129 68.333, 129.889 69, 131 69 C 132.111 69, 133 68.333, 133 67.500 C 133 66.667, 132.111 66, 131 66 C 129.889 66, 129 66.667, 129 67.500 M 58 76.878 C 58 80.457, 58.504 83.174, 59.290 83.826 C 59.999 84.414, 62.943 84.842, 65.832 84.777 L 71.084 84.657 70.792 78.089 C 70.555 72.767, 70.168 71.457, 68.750 71.187 C 67.299 70.910, 67 71.601, 67 75.227 C 67 79.882, 65.633 82.180, 63.378 81.315 C 62.467 80.965, 62 79.128, 62 75.893 C 62 71.667, 61.728 71, 60 71 C 58.227 71, 58 71.667, 58 76.878 M 75 73 C 72.446 75.554, 72.355 81.106, 74.829 83.345 C 76.863 85.186, 82.523 85.581, 83.530 83.952 C 83.886 83.376, 83.919 82.231, 83.603 81.409 C 83.167 80.272, 82.573 80.158, 81.120 80.936 C 79.705 81.693, 78.903 81.587, 78.022 80.527 C 76.057 78.159, 77.213 75.506, 80.231 75.454 C 83.695 75.395, 84.607 74.437, 83.020 72.524 C 81.253 70.395, 77.375 70.625, 75 73 M 101.171 72.750 C 99.352 74.302, 98.552 77.083, 98.889 80.679 C 99.256 84.581, 106.655 86.435, 110.536 83.597 C 113.208 81.643, 113.208 74.357, 110.536 72.403 C 107.911 70.483, 103.642 70.642, 101.171 72.750 M 114 72.793 C 114 73.860, 114.960 77.043, 116.133 79.867 C 117.823 83.933, 118.743 85, 120.561 85 C 122.429 85, 123.242 83.969, 124.928 79.462 C 127.479 72.644, 127.553 70.748, 125.250 71.185 C 124.186 71.387, 122.953 73.245, 122.103 75.925 L 120.706 80.333 119.078 75.925 C 117.368 71.297, 114 69.220, 114 72.793 M 129 78 C 129 84.268, 129.215 85.105, 130.750 84.810 C 132.202 84.530, 132.500 83.369, 132.500 78 C 132.500 72.631, 132.202 71.470, 130.750 71.190 C 129.215 70.895, 129 71.732, 129 78 M 137.790 72.058 C 135.188 73.574, 134.433 79.486, 136.448 82.561 C 137.823 84.659, 138.776 85.059, 141.802 84.807 C 144.405 84.590, 145.583 83.972, 145.825 82.699 C 146.095 81.271, 145.607 80.961, 143.468 81.199 C 140.375 81.544, 138.323 79.206, 139.356 76.514 C 139.872 75.170, 140.734 74.897, 143.015 75.353 C 145.476 75.845, 146 75.622, 146 74.082 C 146 71.172, 141.298 70.013, 137.790 72.058 M 103.709 75.624 C 102.470 76.863, 102.945 80.765, 104.403 81.324 C 106.470 82.118, 109.274 79.664, 108.849 77.434 C 108.479 75.499, 105.044 74.289, 103.709 75.624" stroke="none" fill="#060606" fill-rule="evenodd"/></svg>